<svg width="125" height="40" viewBox="0 0 125 40" fill="none" xmlns="http://www.w3.org/2000/svg">
<g clip-path="url(#clip0_4001_1543)">
<path d="M80.7811 31.4221C80.768 31.5314 80.6562 31.6175 80.4446 31.6819C80.2329 31.7462 80.0312 31.9654 79.8388 32.34C78.7941 34.3745 77.9473 36.0725 77.2966 37.4338C77.2323 37.5681 77.1105 37.6611 76.9313 37.7123C76.922 37.7185 76.9107 37.7217 76.8976 37.7217C76.8177 37.7217 76.7708 37.6255 76.7583 37.4332C76.7103 36.7956 76.3724 35.4055 75.7442 33.2618C75.1578 34.4314 74.4822 35.8214 73.7166 37.4332C73.6523 37.5674 73.5305 37.6605 73.3513 37.7117C73.3419 37.7179 73.3307 37.721 73.3175 37.721C73.2376 37.721 73.1895 37.6249 73.1733 37.4325C73.119 36.7119 72.6669 34.9578 71.8182 32.1708C71.7283 31.8761 71.5347 31.6919 71.2368 31.6182C71.0895 31.5832 71.0208 31.5364 71.0301 31.4789C71.0495 31.3447 71.1213 31.2835 71.2462 31.2966C71.7108 31.3415 72.3034 31.3078 73.0241 31.1954C73.1521 31.176 73.2308 31.1748 73.2595 31.1904C73.2882 31.2066 73.3026 31.2547 73.3026 31.3347C73.3026 31.399 73.2126 31.4739 73.0334 31.5607C72.8092 31.6694 72.6968 31.8024 72.6968 31.9597C72.6968 32.0047 72.705 32.0559 72.7206 32.1134C72.9191 32.9464 73.2414 34.2778 73.6866 36.1068C73.7028 36.1711 73.7266 36.203 73.7584 36.203C73.7903 36.203 73.8209 36.1711 73.8496 36.1068C74.2374 35.2931 74.7963 34.1191 75.5269 32.5842C75.5044 32.5043 75.4613 32.3663 75.397 32.1708C75.3202 31.9404 75.1535 31.753 74.8974 31.6088C74.7632 31.5513 74.7039 31.4858 74.7195 31.4115C74.7644 31.2672 74.8394 31.2048 74.9455 31.2241C75.4807 31.3172 76.0846 31.3265 76.7571 31.2529C76.837 31.2466 76.8932 31.2447 76.9251 31.2479C76.9894 31.2541 77.015 31.3091 77.0019 31.4115C76.9925 31.4914 76.9076 31.557 76.7471 31.6088C76.4136 31.7143 76.2475 31.8317 76.2475 31.9597C76.2475 31.9985 76.2557 32.0497 76.2713 32.1134C76.4792 32.9433 76.8077 34.274 77.2567 36.1068C77.2729 36.1711 77.2966 36.203 77.3285 36.203C77.3603 36.203 77.3928 36.1711 77.4246 36.1068C78.1709 34.5694 78.7716 33.3098 79.2268 32.3294C79.2718 32.2301 79.2943 32.1421 79.2943 32.0653C79.2943 31.8729 79.1338 31.7175 78.8135 31.5994L78.7941 31.5944C78.6692 31.5464 78.6161 31.4758 78.6355 31.3827C78.648 31.3122 78.6704 31.2691 78.7029 31.2529C78.7416 31.2366 78.8259 31.2366 78.9577 31.2529C79.5278 31.3265 80.0693 31.3328 80.5819 31.2722C80.6719 31.2628 80.7293 31.2666 80.7549 31.2841C80.7805 31.3016 80.7886 31.3471 80.7786 31.4208L80.7811 31.4221Z" fill="white"/>
<path d="M83.7361 34.4552C83.7361 34.798 83.5538 35.0878 83.1885 35.3251C82.8394 35.5524 82.2386 35.7847 81.3863 36.022C81.3994 36.3873 81.4855 36.6658 81.646 36.8581C81.7872 37.028 81.9645 37.1129 82.1793 37.1129C82.461 37.1129 82.7513 37.0105 83.0492 36.8057C83.1579 36.732 83.2428 36.7095 83.304 36.7382C83.3714 36.7832 83.4051 36.8394 83.4051 36.9062C83.4051 36.9574 83.3814 37.0042 83.3333 37.0455C82.8562 37.417 82.3866 37.6031 81.9252 37.6031C81.0796 37.6031 80.6562 37.121 80.6562 36.1568C80.6562 35.4362 80.8661 34.8436 81.2857 34.379C81.6829 33.9369 82.1587 33.7158 82.7126 33.7158C83.3951 33.7158 83.7361 33.9625 83.7361 34.4558V34.4552ZM82.9674 34.6332C82.9674 34.4795 82.9199 34.3534 82.8256 34.256C82.7313 34.1586 82.6083 34.1092 82.4578 34.1092C82.1949 34.1092 81.9626 34.2504 81.7609 34.532C81.543 34.8361 81.4212 35.2301 81.3956 35.7141C82.0045 35.5186 82.4185 35.345 82.6377 35.1927C82.8569 35.0403 82.9668 34.8536 82.9668 34.6325L82.9674 34.6332Z" fill="white"/>
<path d="M85.82 31.0909C85.474 33.1154 85.1855 34.7284 84.9551 35.9299C84.8302 36.5768 84.7677 36.9122 84.7677 36.934C84.7677 37.0208 84.8271 37.0639 84.9457 37.0639C85.0481 37.0639 85.218 36.9196 85.4553 36.6311C85.4646 36.6249 85.4759 36.6218 85.489 36.6218C85.5208 36.6218 85.5539 36.6411 85.5877 36.6792C85.6214 36.7179 85.6382 36.7548 85.6382 36.7898C85.6382 36.806 85.6333 36.8172 85.6239 36.8235C85.2011 37.3362 84.8339 37.5922 84.5236 37.5922C84.2132 37.5922 84.0527 37.4754 84.0527 37.2412C84.0527 37.0814 84.1214 36.6436 84.2594 35.9292C84.4999 34.6828 84.7515 33.2397 85.0138 31.5998C85.0488 31.3819 85.0232 31.2732 84.937 31.2732C84.857 31.2732 84.6341 31.3195 84.2688 31.4125C84.1951 31.4319 84.1583 31.3707 84.1583 31.2302C84.1583 31.1914 84.1676 31.1677 84.187 31.1583C84.8695 30.8442 85.3004 30.6875 85.4796 30.6875C85.7132 30.6875 85.8306 30.7949 85.8306 31.0097C85.8306 31.0353 85.8275 31.0628 85.8212 31.0915L85.82 31.0909Z" fill="white"/>
<path d="M87.8161 31.0909C87.4701 33.1154 87.1816 34.7284 86.9512 35.9299C86.8263 36.5768 86.7638 36.9122 86.7638 36.934C86.7638 37.0208 86.8232 37.0639 86.9418 37.0639C87.0442 37.0639 87.2141 36.9196 87.4514 36.6311C87.4607 36.6249 87.472 36.6218 87.4851 36.6218C87.5169 36.6218 87.55 36.6411 87.5838 36.6792C87.6175 36.7179 87.6343 36.7548 87.6343 36.7898C87.6343 36.806 87.6293 36.8172 87.62 36.8235C87.1972 37.3362 86.83 37.5922 86.5197 37.5922C86.2093 37.5922 86.0488 37.4754 86.0488 37.2412C86.0488 37.0814 86.1175 36.6436 86.2555 35.9292C86.4959 34.6828 86.7476 33.2397 87.0099 31.5998C87.0448 31.3819 87.0192 31.2732 86.9331 31.2732C86.8531 31.2732 86.6302 31.3195 86.2649 31.4125C86.1912 31.4319 86.1544 31.3707 86.1544 31.2302C86.1544 31.1914 86.1637 31.1677 86.1831 31.1583C86.8656 30.8442 87.2965 30.6875 87.4757 30.6875C87.7093 30.6875 87.8267 30.7949 87.8267 31.0097C87.8267 31.0353 87.8236 31.0628 87.8173 31.0915L87.8161 31.0909Z" fill="white"/>
<path d="M91.8985 36.8242C91.5169 37.3369 91.1697 37.5929 90.8556 37.5929C90.5415 37.5929 90.3654 37.4618 90.3654 37.1989C90.3654 37.0771 90.4441 36.6543 90.6009 35.93C90.7389 35.2986 90.8076 34.9321 90.8076 34.8297C90.8076 34.4999 90.6571 34.3345 90.3561 34.3345C90.1219 34.3345 89.8677 34.5505 89.5917 34.9833C89.3001 35.4416 89.0922 35.9862 88.9673 36.6169L88.828 37.3281C88.8024 37.4693 88.6644 37.5473 88.4146 37.5636C88.3184 37.5698 88.251 37.5604 88.2129 37.5348C88.1748 37.5092 88.1598 37.4661 88.1698 37.4049C88.2497 36.9628 88.3284 36.5207 88.4052 36.0786C88.4914 35.5534 88.5351 35.1063 88.5351 34.7379C88.5351 34.43 88.4852 34.2764 88.3859 34.2764C88.2804 34.2764 88.1105 34.4238 87.8763 34.7185C87.867 34.7247 87.857 34.7279 87.8476 34.7279C87.8158 34.7279 87.782 34.7073 87.7464 34.6654C87.7115 34.6236 87.6934 34.5855 87.6934 34.5499C87.6934 34.5374 87.6952 34.5274 87.6984 34.5212C88.0893 34.0022 88.4402 33.7425 88.7506 33.7425C89.0453 33.7425 89.1927 33.898 89.1927 34.2083C89.1927 34.3844 89.1671 34.6136 89.1159 34.8952C89.1096 34.9208 89.1209 34.9371 89.1496 34.9433C89.1783 34.9496 89.1989 34.9371 89.2121 34.9046C89.696 34.1034 90.1956 33.7031 90.7114 33.7031C91.2559 33.7031 91.5282 33.9885 91.5282 34.5586C91.5282 34.6929 91.4383 35.15 91.259 35.9281C91.1342 36.4757 91.0717 36.8073 91.0717 36.9229C91.0717 37.0159 91.1279 37.0621 91.2397 37.0621C91.3196 37.0621 91.4882 36.9179 91.7443 36.6294C91.7505 36.6231 91.7567 36.62 91.7636 36.62C91.7923 36.62 91.8242 36.64 91.8598 36.6799C91.8947 36.7199 91.9129 36.7561 91.9129 36.788C91.9129 36.8011 91.9079 36.8117 91.8985 36.8217V36.8242Z" fill="white"/>
<path d="M95.1121 34.4552C95.1121 34.798 94.9297 35.0878 94.5644 35.3251C94.2153 35.5524 93.6146 35.7847 92.7622 36.022C92.7753 36.3873 92.8615 36.6658 93.022 36.8581C93.1631 37.028 93.3405 37.1129 93.5553 37.1129C93.8369 37.1129 94.1273 37.0105 94.4252 36.8057C94.5338 36.732 94.6188 36.7095 94.68 36.7382C94.7474 36.7832 94.7811 36.8394 94.7811 36.9062C94.7811 36.9574 94.7574 37.0042 94.7093 37.0455C94.2322 37.417 93.7626 37.6031 93.3011 37.6031C92.4556 37.6031 92.0322 37.121 92.0322 36.1568C92.0322 35.4362 92.242 34.8436 92.6617 34.379C93.0588 33.9369 93.5347 33.7158 94.0886 33.7158C94.7711 33.7158 95.1121 33.9625 95.1121 34.4558V34.4552ZM94.3434 34.6332C94.3434 34.4795 94.2959 34.3534 94.2016 34.256C94.1073 34.1586 93.9843 34.1092 93.8338 34.1092C93.5709 34.1092 93.3386 34.2504 93.1369 34.532C92.919 34.8361 92.7972 35.2301 92.7716 35.7141C93.3804 35.5186 93.7945 35.345 94.0136 35.1927C94.2328 35.0403 94.3427 34.8536 94.3427 34.6325L94.3434 34.6332Z" fill="white"/>
<path d="M98.1901 34.1372C98.1514 34.3839 98.1195 34.5375 98.0939 34.5987C98.0652 34.6724 98.0152 34.7092 97.9447 34.7092C97.826 34.7092 97.7174 34.6337 97.6181 34.4832C97.4451 34.214 97.2065 34.0798 96.9018 34.0798C96.7257 34.0798 96.5827 34.126 96.4741 34.219C96.3779 34.3058 96.3298 34.4064 96.3298 34.5219C96.3298 34.6724 96.3891 34.8073 96.5078 34.9253C96.5559 34.9734 96.6776 35.0664 96.8731 35.2038C97.299 35.5017 97.5731 35.7177 97.6949 35.8526C97.8422 36.0162 97.9159 36.2067 97.9159 36.4246C97.9159 36.7799 97.7736 37.0684 97.4882 37.2895C97.2028 37.5106 96.83 37.6211 96.3685 37.6211C95.6092 37.6211 95.2295 37.4387 95.2295 37.0734C95.2295 36.7081 95.2982 36.5114 95.4362 36.5114C95.5836 36.5114 95.7085 36.5995 95.8109 36.7756C95.9901 37.0928 96.2511 37.2514 96.5939 37.2514C97.0005 37.2514 97.204 37.0897 97.204 36.7662C97.204 36.6157 97.1653 36.4902 97.0885 36.389C97.0117 36.2879 96.85 36.1542 96.6033 35.9875C96.238 35.7408 95.9913 35.5416 95.8633 35.3893C95.7353 35.2369 95.671 35.0633 95.671 34.8678C95.671 34.5381 95.8065 34.2615 96.0769 34.0392C96.3473 33.8162 96.6851 33.7051 97.0885 33.7051C97.8703 33.7051 98.2369 33.8493 98.1888 34.1378L98.1901 34.1372Z" fill="white"/>
<path d="M101.211 34.1372C101.172 34.3839 101.14 34.5375 101.114 34.5987C101.086 34.6724 101.036 34.7092 100.965 34.7092C100.847 34.7092 100.738 34.6337 100.639 34.4832C100.466 34.214 100.227 34.0798 99.9223 34.0798C99.7462 34.0798 99.6032 34.126 99.4946 34.219C99.3984 34.3058 99.3503 34.4064 99.3503 34.5219C99.3503 34.6724 99.4096 34.8073 99.5283 34.9253C99.5764 34.9734 99.6981 35.0664 99.8936 35.2038C100.319 35.5017 100.594 35.7177 100.715 35.8526C100.863 36.0162 100.936 36.2067 100.936 36.4246C100.936 36.7799 100.794 37.0684 100.509 37.2895C100.223 37.5106 99.8505 37.6211 99.389 37.6211C98.6297 37.6211 98.25 37.4387 98.25 37.0734C98.25 36.7081 98.3187 36.5114 98.4567 36.5114C98.6041 36.5114 98.729 36.5995 98.8314 36.7756C99.0106 37.0928 99.2716 37.2514 99.6145 37.2514C100.021 37.2514 100.225 37.0897 100.225 36.7662C100.225 36.6157 100.186 36.4902 100.109 36.389C100.032 36.2879 99.8705 36.1542 99.6238 35.9875C99.2585 35.7408 99.0118 35.5416 98.8838 35.3893C98.7558 35.2369 98.6915 35.0633 98.6915 34.8678C98.6915 34.5381 98.827 34.2615 99.0974 34.0392C99.3678 33.8162 99.7056 33.7051 100.109 33.7051C100.891 33.7051 101.257 33.8493 101.209 34.1378L101.211 34.1372Z" fill="white"/>
<path d="M110.078 34.6712C110.059 34.7799 109.979 34.8461 109.838 34.8686C109.604 34.9035 109.456 34.9385 109.393 34.9716C109.331 35.0053 109.293 35.0746 109.28 35.1808L109.112 36.4734C109.074 36.7394 108.823 36.9986 108.358 37.2521C107.83 37.5406 107.221 37.6849 106.532 37.6849C105.658 37.6849 104.942 37.4382 104.384 36.9449C103.811 36.4422 103.523 35.7821 103.523 34.9653C103.523 33.8632 103.9 32.9421 104.652 32.2021C105.406 31.4621 106.337 31.0918 107.449 31.0918C108.103 31.0918 108.632 31.1605 109.035 31.2985C109.365 31.4109 109.531 31.5308 109.535 31.6588C109.541 31.8992 109.515 32.2614 109.458 32.7447C109.445 32.844 109.373 32.8984 109.242 32.9084C109.107 32.9215 109.027 32.8828 109.001 32.7928C108.873 32.3189 108.684 31.9885 108.434 31.8031C108.171 31.6107 107.765 31.5146 107.213 31.5146C106.393 31.5146 105.737 31.8062 105.243 32.3894C104.744 32.9852 104.494 33.7926 104.494 34.8111C104.494 35.5255 104.687 36.1019 105.075 36.5409C105.482 36.9992 106.039 37.2278 106.748 37.2278C107.167 37.2278 107.524 37.1572 107.817 37.0161C108.109 36.875 108.276 36.6907 108.314 36.4634C108.33 36.361 108.37 36.0713 108.434 35.5936C108.443 35.5167 108.448 35.4493 108.448 35.3919C108.448 35.1321 108.275 34.9516 107.929 34.8486C107.759 34.7974 107.684 34.7349 107.703 34.6612C107.725 34.5782 107.752 34.5257 107.785 34.5051C107.817 34.4845 107.892 34.4801 108.011 34.4932C108.748 34.5701 109.371 34.5732 109.88 34.5026C109.97 34.4901 110.025 34.492 110.048 34.5101C110.07 34.5276 110.08 34.5813 110.077 34.6712H110.078Z" fill="white"/>
<path d="M113.367 34.1378C113.246 34.5319 113.124 34.7286 113.002 34.7286C112.957 34.7286 112.854 34.6924 112.692 34.6205C112.531 34.5487 112.41 34.5125 112.33 34.5125C112.173 34.5125 111.981 34.708 111.753 35.0989C111.5 35.5316 111.313 36.0374 111.191 36.6176L111.042 37.3288C111.013 37.47 110.872 37.548 110.619 37.5643C110.526 37.5705 110.459 37.5611 110.418 37.5355C110.376 37.5099 110.361 37.4668 110.374 37.4056C110.474 36.941 110.575 36.4783 110.677 36.0168C110.789 35.4405 110.845 34.969 110.845 34.6043C110.845 34.3864 110.8 34.2777 110.711 34.2777C110.609 34.2777 110.431 34.4251 110.178 34.7198C110.171 34.7261 110.162 34.7292 110.149 34.7292C110.12 34.7292 110.09 34.7098 110.058 34.6717C110.026 34.633 110.01 34.5968 110.01 34.5612C110.01 34.545 110.013 34.5325 110.019 34.5225C110.41 34.0036 110.77 33.7438 111.1 33.7438C111.264 33.7438 111.373 33.7769 111.429 33.8425C111.485 33.908 111.513 34.0242 111.513 34.1909C111.513 34.3064 111.482 34.5419 111.417 34.8972C111.411 34.9228 111.42 34.939 111.446 34.9453C111.472 34.9515 111.494 34.939 111.513 34.9065C111.703 34.6024 111.917 34.3427 112.157 34.1278C112.471 33.8462 112.769 33.7051 113.051 33.7051C113.291 33.7051 113.411 33.7725 113.411 33.9068C113.411 33.9611 113.397 34.0379 113.368 34.1372L113.367 34.1378Z" fill="white"/>
<path d="M116.739 35.2329C116.739 35.9123 116.541 36.4825 116.143 36.9439C115.759 37.3829 115.305 37.6021 114.783 37.6021C113.857 37.6021 113.395 37.0782 113.395 36.031C113.395 35.3516 113.602 34.7883 114.019 34.3393C114.407 33.9228 114.858 33.7148 115.374 33.7148C115.819 33.7148 116.16 33.851 116.398 34.1232C116.625 34.3861 116.739 34.7558 116.739 35.2335L116.739 35.2329ZM115.966 35.4977C115.966 34.5972 115.706 34.1476 115.187 34.1476C114.883 34.1476 114.638 34.3 114.452 34.6041C114.266 34.9082 114.174 35.3216 114.174 35.8436C114.174 36.7341 114.446 37.1794 114.991 37.1794C115.289 37.1794 115.526 37.027 115.702 36.7229C115.878 36.4188 115.966 36.0104 115.966 35.4977Z" fill="white"/>
<path d="M121.053 36.7949C120.665 37.3138 120.318 37.5736 120.01 37.5736C119.702 37.5736 119.568 37.4231 119.568 37.1221C119.568 36.9716 119.591 36.7425 119.636 36.4352C119.639 36.4034 119.629 36.3859 119.607 36.3821C119.581 36.3759 119.559 36.3903 119.539 36.4252C119.059 37.2227 118.559 37.6217 118.04 37.6217C117.8 37.6217 117.607 37.5511 117.464 37.41C117.31 37.2564 117.233 37.0416 117.233 36.7662C117.233 36.5739 117.32 36.1192 117.493 35.4017C117.615 34.8766 117.675 34.5481 117.675 34.4163C117.675 34.3233 117.624 34.2771 117.522 34.2771C117.432 34.2771 117.264 34.4245 117.017 34.7192C117.011 34.7254 117.003 34.7286 116.993 34.7286C116.965 34.7286 116.932 34.7086 116.895 34.6686C116.858 34.6286 116.84 34.5924 116.84 34.5606C116.84 34.5443 116.843 34.5319 116.849 34.5219C117.249 34.0029 117.602 33.7432 117.906 33.7432C118.227 33.7432 118.387 33.8743 118.387 34.1372C118.387 34.2558 118.309 34.6774 118.152 35.4011C118.014 36.0324 117.945 36.399 117.945 36.5014C117.945 36.828 118.099 36.9916 118.407 36.9916C118.64 36.9916 118.897 36.7768 119.175 36.3478C119.476 35.8832 119.683 35.3368 119.795 34.7092L119.93 33.9405C119.955 33.8062 120.093 33.7275 120.343 33.7051C120.51 33.6926 120.598 33.7101 120.607 33.7582C120.61 33.7806 120.609 33.8156 120.602 33.8637C120.346 35.2762 120.218 36.1848 120.218 36.5882C120.218 36.8923 120.271 37.0447 120.376 37.0447C120.469 37.0447 120.642 36.8992 120.895 36.6076C120.901 36.6045 120.909 36.6013 120.919 36.5982C120.944 36.5982 120.975 36.6188 121.01 36.6607C121.045 36.7025 121.063 36.7393 121.063 36.7712C121.06 36.7806 121.057 36.7887 121.054 36.7949H121.053Z" fill="white"/>
<path d="M124.842 34.9351C124.842 35.6913 124.619 36.3258 124.174 36.8378C123.71 37.3661 123.247 37.6309 122.785 37.6309C122.574 37.6309 122.324 37.6115 122.036 37.5734C121.982 37.9288 121.897 38.4514 121.781 39.1402C121.772 39.1914 121.767 39.2333 121.767 39.2651C121.767 39.355 121.802 39.4187 121.872 39.4574C121.943 39.4962 122.084 39.5311 122.295 39.563C122.407 39.5792 122.473 39.5917 122.493 39.6017C122.557 39.6304 122.579 39.6866 122.56 39.7697C122.534 39.8752 122.475 39.9283 122.382 39.9283C121.969 39.9283 121.575 39.9508 121.2 39.9957C121.036 40.0151 120.955 39.9783 120.955 39.8852C120.955 39.8596 120.979 39.7653 121.027 39.6017C121.075 39.4256 121.104 39.3132 121.113 39.2651L121.752 35.1518C121.666 35.2061 121.475 35.3216 121.18 35.4977C121.097 35.5489 121.038 35.5296 121.002 35.4403C120.966 35.341 120.988 35.2654 121.064 35.2142C121.122 35.1724 121.24 35.09 121.42 34.9669C121.599 34.8439 121.735 34.7484 121.828 34.6809C121.908 34.3 121.98 34.0053 122.044 33.7967C122.175 33.3739 122.307 33.1304 122.438 33.0661C122.544 33.0149 122.616 32.9893 122.654 32.9893C122.709 32.9893 122.736 33.0355 122.736 33.1285C122.736 33.1672 122.733 33.2153 122.727 33.2728C122.704 33.4201 122.658 33.7292 122.587 34.2001C123.145 33.8704 123.58 33.7049 123.894 33.7049C124.526 33.7049 124.841 34.1152 124.841 34.9351H124.842ZM124.074 35.1324C124.074 34.6004 123.904 34.335 123.564 34.335C123.33 34.335 122.98 34.4599 122.512 34.7097C122.435 35.1743 122.32 35.8968 122.166 36.8772C122.518 37.0339 122.84 37.1126 123.132 37.1126C123.362 37.1126 123.569 36.9509 123.752 36.6274C123.967 36.2496 124.074 35.7513 124.074 35.133L124.074 35.1324Z" fill="white"/>
<path d="M29.8493 13.1267C29.7825 13.1067 29.6295 13.108 29.3934 13.1379C28.029 13.2866 26.7857 13.2997 25.6754 13.1773C25.3863 13.1435 25.2389 13.2684 25.2389 13.5532C25.2389 13.6887 25.3962 13.7836 25.7178 13.8386C26.6164 13.9928 27.0698 14.503 27.0698 15.3598V22.7035C27.0698 22.8864 27.0411 22.977 26.9861 22.977C26.948 22.977 26.87 22.9139 26.7532 22.7834L18.2411 13.7156C17.9795 13.4308 17.6798 13.3072 17.3488 13.3403C16.7025 13.4089 15.9444 13.3796 15.0651 13.2591C14.7779 13.2179 14.6274 13.2897 14.6068 13.472C14.593 13.6356 14.7535 13.7936 15.0851 13.9522C15.5316 14.1514 15.8338 14.3488 15.9912 14.538C16.1504 14.7503 16.231 15.05 16.231 15.4416V24.4289C16.231 24.9303 16.1436 25.2869 15.9681 25.4967C15.7895 25.7053 15.4429 25.8714 14.9234 25.995C14.6305 26.055 14.4844 26.1555 14.4844 26.2979C14.4844 26.5558 14.6305 26.6738 14.9234 26.6532C15.8164 26.5851 17.0684 26.5851 18.6789 26.6532C19.0979 26.6744 19.3084 26.5558 19.3084 26.2979C19.3084 26.1093 19.1229 25.9769 18.7513 25.9007C17.8496 25.7334 17.3994 25.2026 17.3994 24.3096V15.9799C17.3994 15.8587 17.4337 15.7813 17.5005 15.7463C17.5605 15.7201 17.6223 15.7363 17.6835 15.7981C19.4982 17.6266 21.3735 19.5936 23.3099 21.6987C25.6261 24.224 26.9543 25.8083 27.2915 26.4521C27.4988 26.8455 27.7573 27.0041 28.0652 26.928C28.2432 26.8817 28.3306 26.6782 28.3169 26.3197C28.2775 25.3787 28.2569 24.141 28.2569 22.6017V15.3004C28.2569 14.5898 28.6641 14.1202 29.4734 13.891C29.8412 13.7818 30.0235 13.6431 30.0235 13.4733C30.0235 13.2766 29.9661 13.1648 29.8499 13.1286L29.8493 13.1267Z" fill="white"/>
<path d="M38.5897 25.2613C38.5572 25.2613 38.4329 25.2794 38.225 25.3131C38.0139 25.3469 37.8715 25.365 37.796 25.365C37.4182 25.365 37.2321 25.1445 37.2389 24.7024L37.2789 20.5191C37.2939 19.2134 36.6139 18.5596 35.2357 18.5596C34.4382 18.5596 33.6046 18.7881 32.7397 19.2384C31.9141 19.6749 31.5008 20.052 31.5008 20.3755C31.5008 20.8988 31.7799 21.133 32.3338 21.0762C32.8227 21.0381 33.1962 20.7558 33.4553 20.2356C33.7182 19.7155 33.993 19.4526 34.2821 19.4526C35.3081 19.4526 35.7964 20.0077 35.7558 21.1167L35.7352 21.7699C35.729 22.0522 35.4929 22.2408 35.0352 22.327C32.3563 22.8353 31.0137 23.6764 31.0137 24.8454C31.0137 25.4618 31.2166 25.9507 31.6238 26.3085C31.9953 26.6333 32.4574 26.7962 33.0151 26.7962C33.6046 26.7962 34.1909 26.6564 34.7717 26.3791C35.3543 26.1025 35.6747 25.9638 35.7352 25.9638C35.8164 25.9638 35.9613 26.0906 36.1624 26.3491C36.3659 26.6064 36.6001 26.735 36.8636 26.735C37.1734 26.735 37.5893 26.5902 38.1082 26.3042C38.6253 26.0169 38.8869 25.8002 38.8869 25.6578C38.8869 25.3956 38.7857 25.2619 38.5903 25.2619L38.5897 25.2613ZM35.7352 25.0072C35.7352 25.2182 35.5254 25.3974 35.1064 25.5479C34.7486 25.6753 34.3989 25.739 34.0617 25.739C33.2118 25.739 32.7928 25.3494 32.7928 24.57C32.7928 23.7907 33.6058 23.268 35.2369 22.9758C35.4199 22.9433 35.5541 22.9527 35.6391 23.007C35.7265 23.0626 35.7621 23.1731 35.7565 23.343L35.7359 25.0072H35.7352Z" fill="white"/>
<path d="M44.5268 25.5246C44.508 25.5246 44.3244 25.5652 43.986 25.6426C43.6494 25.7206 43.3634 25.7581 43.1248 25.7581C42.4079 25.7581 41.9508 25.6176 41.756 25.3322C41.6055 25.1099 41.53 24.5754 41.53 23.7386V20.4165C41.53 20.1461 41.5543 19.98 41.6018 19.92C41.6617 19.832 41.8253 19.7876 42.0876 19.7876H43.6194C43.9285 19.7876 44.1583 19.594 44.3157 19.2069C44.4406 18.8915 44.4406 18.731 44.3157 18.731H42.0483C41.8797 18.731 41.771 18.7017 41.7229 18.6411C41.6886 18.6005 41.6717 18.5306 41.6717 18.4375L41.6305 17.1674C41.6267 17.04 41.5462 16.9513 41.3957 16.902C41.1803 16.8564 41.0379 16.8964 40.9611 17.0237C40.4184 17.9511 39.7833 18.5961 39.0508 18.9552C38.969 18.9952 38.9297 19.1126 38.9297 19.3093C38.9297 19.4929 38.9821 19.5997 39.0908 19.6253C39.5136 19.7258 39.7584 19.8301 39.8333 19.9356C39.9076 20.0393 39.9488 20.3265 39.9488 20.7936V24.4692C39.9488 26.0335 40.6813 26.8141 42.1482 26.8141C42.689 26.8141 43.2266 26.7135 43.7549 26.5075C44.3494 26.2802 44.6473 26.0023 44.6473 25.6769C44.6473 25.5751 44.6086 25.5239 44.5249 25.5239L44.5268 25.5246Z" fill="white"/>
<path d="M54.19 25.5036C53.4869 25.4487 53.1341 25.1839 53.1341 24.7024V22.1434C53.1341 21.5008 53.1472 20.8364 53.1665 20.1482C53.1853 19.4588 53.1946 19.1197 53.1946 19.1278C53.1946 18.8218 53.066 18.6701 52.7981 18.6701C52.6626 18.6701 51.8964 18.9243 50.4976 19.4313C50.3102 19.5006 50.2191 19.6099 50.2191 19.7673C50.2191 19.9159 50.2952 20.0208 50.4407 20.0814C50.9566 20.2181 51.2732 20.3793 51.3931 20.5653C51.5111 20.7508 51.571 21.1723 51.571 21.8299V23.6377C51.571 24.8548 50.9765 25.4655 49.7876 25.4655C49.0114 25.4655 48.4793 25.3294 48.1889 25.0584C47.8636 24.7555 47.7012 24.1872 47.7012 23.3617V22.144C47.7012 21.5014 47.7218 20.4648 47.7612 19.0367C47.7612 18.7188 47.6407 18.5596 47.4077 18.5596C47.2497 18.5596 47.0012 18.6301 46.6546 18.7719C46.1601 18.9748 45.663 19.1759 45.1628 19.372C44.8986 19.4738 44.7656 19.5924 44.7656 19.7267C44.7656 19.8497 44.8424 19.9346 44.9992 19.9802C45.4731 20.1313 45.7879 20.3474 45.9446 20.6315C46.0608 20.8613 46.1157 21.261 46.1157 21.8299V23.87C46.1157 24.9528 46.3312 25.7022 46.7658 26.115C47.1667 26.5009 47.8748 26.6938 48.8877 26.6938C49.3679 26.6938 49.9249 26.5521 50.565 26.2661C51.2013 25.9819 51.5473 25.8414 51.6122 25.8414C51.7271 25.8414 51.9257 25.9938 52.2136 26.2967C52.5009 26.602 52.6901 26.755 52.7769 26.755L53.5899 26.3985C54.2275 26.1193 54.5441 25.9157 54.5441 25.7796C54.5441 25.6179 54.4242 25.5248 54.1882 25.503L54.19 25.5036Z" fill="white"/>
<path d="M60.7186 18.649C60.1284 18.649 59.5858 18.8163 59.0931 19.1473C58.3419 19.655 57.9641 19.9104 57.9578 19.9104C57.8748 19.9104 57.8011 19.6406 57.7436 19.1074C57.6955 18.6883 57.5494 18.4785 57.3046 18.4785C57.2191 18.4785 57.0167 18.6034 56.6951 18.8526C56.3099 19.1498 55.884 19.3815 55.4169 19.5432C55.1365 19.6388 55.001 19.7524 55.001 19.8911C55.001 20.0122 55.0665 20.1059 55.2014 20.1721L55.2645 20.2045C55.7641 20.4537 56.0726 20.6548 56.18 20.804C56.2961 20.9533 56.3511 21.2386 56.3511 21.6652V24.9249C56.3511 25.4694 56.1625 25.7922 55.7865 25.8996C55.4119 26.0077 55.2233 26.1544 55.2233 26.338C55.2233 26.5322 55.2526 26.6515 55.312 26.6933C55.3875 26.742 55.5586 26.742 55.8315 26.6933C56.6983 26.5516 57.8773 26.5578 59.3678 26.7121C59.5702 26.7345 59.6957 26.7246 59.7456 26.6865C59.7975 26.6509 59.8218 26.5416 59.8218 26.3574C59.8218 26.2025 59.6688 26.0876 59.3672 26.0108C58.7977 25.8634 58.443 25.746 58.2975 25.6573C58.0565 25.5087 57.9347 25.2577 57.9347 24.9049V21.9099C57.9347 20.8858 58.3113 20.3763 59.0712 20.3763C59.2698 20.3763 59.5758 20.4218 59.9954 20.518C60.4138 20.6104 60.6592 20.6591 60.7367 20.6591C61.2106 20.6591 61.4486 20.252 61.4486 19.4302C61.4486 18.91 61.2056 18.6477 60.7179 18.6477L60.7186 18.649Z" fill="white"/>
<path d="M69.1609 24.6336C69.0211 24.6336 68.8749 24.6773 68.7269 24.7647C67.7315 25.3323 66.8417 25.6177 66.063 25.6177C64.7154 25.6177 63.8892 24.8128 63.5863 23.1979L68.2704 21.8085C68.9318 21.6124 69.2652 21.3757 69.2652 21.0991C69.2652 20.8937 69.174 20.775 68.9992 20.7425C68.8774 20.7232 68.7888 20.6264 68.7269 20.4584C68.5564 19.9707 68.2105 19.5373 67.6891 19.1589C67.1064 18.7318 66.4782 18.5176 65.8113 18.5176C64.681 18.5176 63.7269 18.8985 62.9475 19.6554C62.1139 20.4684 61.6992 21.5437 61.6992 22.8857C61.6992 24.0716 62.0708 25.0164 62.8151 25.7301C63.5133 26.3996 64.3707 26.7343 65.3948 26.7343C66.3371 26.7343 67.2557 26.4951 68.1449 26.0124C68.9318 25.5803 69.3245 25.2181 69.3245 24.9258C69.3245 24.7304 69.2721 24.6342 69.1609 24.6342V24.6336ZM63.4846 22.1432C63.4846 20.351 64.1084 19.4524 65.3542 19.4524C65.7907 19.4524 66.1648 19.5942 66.4682 19.8764C66.768 20.1549 66.9185 20.4828 66.9185 20.8556C66.9185 21.1928 66.6949 21.4251 66.2491 21.555L63.4846 22.3874V22.1438V22.1432Z" fill="white"/>
<path d="M74.0934 25.995C73.6 25.9325 73.2528 25.8076 73.048 25.6234C72.8451 25.4373 72.7414 25.1357 72.7414 24.7248L72.7014 15.6539C72.6952 15.0057 72.7014 14.3456 72.7208 13.6756C72.7495 12.9712 72.7639 12.6315 72.7639 12.6614C72.7639 12.3124 72.639 12.1406 72.3873 12.1406C72.2774 12.1406 72.0195 12.2624 71.6167 12.5059C71.119 12.8188 70.6432 13.0486 70.1855 13.196C69.8795 13.299 69.7246 13.4514 69.7246 13.6543C69.7246 13.7905 69.8289 13.8941 70.0412 13.9697C70.4384 14.1133 70.7213 14.31 70.8774 14.5685C71.0372 14.8252 71.1178 15.228 71.1178 15.7775V24.9684C71.1178 25.5229 70.9317 25.8557 70.5633 25.9681C70.1955 26.0799 70.0094 26.2173 70.0094 26.3796C70.0094 26.5626 70.0412 26.675 70.1093 26.7137C70.1723 26.7568 70.3416 26.7624 70.6213 26.7362C71.9989 26.6213 73.1598 26.6082 74.0927 26.695C74.3981 26.7287 74.5473 26.6107 74.5473 26.3397C74.5473 26.1423 74.3981 26.0274 74.0927 25.9956L74.0934 25.995Z" fill="white"/>
<path d="M82.4797 25.2613C82.4441 25.2613 82.3223 25.2794 82.11 25.3131C81.9027 25.3469 81.7609 25.365 81.6878 25.365C81.3082 25.365 81.1196 25.1445 81.1296 24.7024L81.1695 20.5191C81.1802 19.2134 80.502 18.5596 79.1294 18.5596C78.3289 18.5596 77.4933 18.7881 76.6297 19.2384C75.8048 19.6749 75.3908 20.052 75.3908 20.3755C75.3908 20.8988 75.6661 21.133 76.2238 21.0762C76.7102 21.0381 77.0849 20.7558 77.3435 20.2356C77.6064 19.7155 77.8817 19.4526 78.1734 19.4526C79.1937 19.4526 79.6864 20.0077 79.6452 21.1167L79.6252 21.7699C79.619 22.0522 79.3854 22.2408 78.9246 22.327C76.2431 22.8353 74.9043 23.6764 74.9043 24.8454C74.9043 25.4618 75.1066 25.9507 75.5125 26.3085C75.8835 26.6333 76.3487 26.7962 76.902 26.7962C77.4927 26.7962 78.0766 26.6564 78.6586 26.3791C79.2406 26.1025 79.5628 25.9638 79.6246 25.9638C79.7039 25.9638 79.8463 26.0906 80.0499 26.3491C80.2553 26.6064 80.4889 26.735 80.7511 26.735C81.0646 26.735 81.4768 26.5902 81.9963 26.3042C82.5153 26.0169 82.7713 25.8002 82.7713 25.6578C82.7713 25.3956 82.6757 25.2619 82.479 25.2619L82.4797 25.2613ZM79.6246 25.0072C79.6246 25.2182 79.416 25.3974 78.9939 25.5479C78.6361 25.6753 78.2876 25.739 77.9479 25.739C77.1024 25.739 76.6815 25.3494 76.6815 24.57C76.6815 23.7907 77.4927 23.268 79.1288 22.9758C79.3074 22.9433 79.4423 22.9527 79.5291 23.007C79.6134 23.0626 79.6502 23.1731 79.644 23.343L79.624 25.0072H79.6246Z" fill="white"/>
<path d="M93.1787 26.1151C92.7103 26.0208 92.3956 25.9052 92.2332 25.7703C92.0172 25.5874 91.9122 25.2858 91.9122 24.8667L91.8879 21.5952C91.8748 19.5982 90.9899 18.599 89.2395 18.599C88.512 18.599 87.7796 18.7982 87.0346 19.1947C86.2896 19.5919 85.9461 19.7886 85.9967 19.7886C85.8887 19.7886 85.8044 19.5794 85.7444 19.1629C85.6838 18.7464 85.5615 18.5391 85.3772 18.5391C85.2711 18.5391 85.0275 18.6665 84.6479 18.925C84.1951 19.2366 83.7767 19.4608 83.3989 19.605C83.1217 19.7068 82.9824 19.8248 82.9824 19.9597C82.9824 20.1027 83.0474 20.1964 83.1847 20.2463C83.7199 20.4293 84.0309 20.5698 84.1289 20.6722C84.2669 20.8127 84.3331 21.1468 84.3331 21.6658V24.7425C84.3331 25.5343 84.1533 25.9864 83.7961 26.0938C83.4108 26.21 83.2166 26.3474 83.2166 26.5091C83.2166 26.6933 83.284 26.7982 83.417 26.8251C83.4801 26.8394 83.6319 26.8288 83.8748 26.7945C85.0088 26.6446 86.1035 26.5915 87.1657 26.6334C87.3574 26.639 87.4717 26.6352 87.511 26.6227C87.5997 26.5896 87.6428 26.4872 87.6428 26.318C87.6428 26.1488 87.4854 26.0407 87.1657 26.0126C86.3327 25.9383 85.918 25.583 85.918 24.9461V21.2317C85.918 20.9308 86.1609 20.646 86.6455 20.3669C87.1613 20.0827 87.7221 19.941 88.3247 19.941C89.6711 19.941 90.3455 20.7159 90.3455 22.2659V24.9685C90.3455 25.5612 90.1644 25.9115 89.8047 26.012C89.4106 26.1194 89.2164 26.2437 89.2164 26.3786C89.2164 26.4535 89.2221 26.5091 89.2395 26.5516C89.2714 26.6727 89.4793 26.7195 89.8659 26.6933C90.619 26.6446 91.7218 26.6596 93.1793 26.7333C93.4834 26.7551 93.6364 26.659 93.6364 26.4498C93.6364 26.2862 93.4834 26.1744 93.1793 26.1144L93.1787 26.1151Z" fill="white"/>
<path d="M103.136 25.638C103.056 25.4407 102.896 25.3645 102.658 25.4039C102.442 25.4438 102.272 25.4644 102.141 25.4644C101.795 25.4644 101.626 25.2715 101.626 24.8856V15.6529C101.626 15.0128 101.632 14.3484 101.655 13.6702C101.675 12.9908 101.683 12.6517 101.683 12.6605C101.683 12.312 101.56 12.1396 101.309 12.1396C101.2 12.1396 100.915 12.2614 100.457 12.5068C99.8995 12.7891 99.4218 12.9945 99.0222 13.1151C98.733 13.1944 98.5882 13.3218 98.5882 13.4891C98.5882 13.6746 98.6925 13.8057 98.9098 13.8875C99.3631 14.0361 99.6541 14.1648 99.7753 14.2722C99.9639 14.4358 100.059 14.7137 100.059 15.1058V18.5797C100.059 18.7827 99.9258 18.8607 99.6616 18.812C98.818 18.6565 98.088 18.5797 97.4791 18.5797C96.6199 18.5797 95.7737 18.9494 94.9507 19.6857C94.0171 20.5243 93.5469 21.5222 93.5469 22.6812C93.5469 24.0619 93.944 25.1341 94.7377 25.8991C95.3934 26.5429 96.1665 26.8651 97.0638 26.8651C97.461 26.8651 98.0493 26.6859 98.8286 26.3337C99.6017 25.9771 99.9857 25.7998 99.9788 25.7998C100.039 25.7998 100.15 26.0071 100.309 26.413C100.467 26.822 100.611 27.0275 100.729 27.0275C100.872 27.0275 101.34 26.8433 102.141 26.4705C102.832 26.1451 103.177 25.9116 103.177 25.7692C103.177 25.7411 103.164 25.6986 103.136 25.6374V25.638ZM99.9995 24.6339C99.9995 24.8031 99.7653 25.0017 99.2988 25.2328C98.8311 25.4613 98.4239 25.5762 98.0786 25.5762C97.3186 25.5762 96.6598 25.2453 96.1003 24.5821C95.5345 23.917 95.2548 23.1202 95.2548 22.1848C95.2548 20.4381 95.9635 19.5645 97.3786 19.5645C98.0368 19.5645 98.6469 19.7344 99.2083 20.0722C99.7334 20.3919 99.9995 20.6992 99.9995 20.9989V24.6345V24.6339Z" fill="white"/>
<path d="M45.2219 14.1906C47.9564 9.16556 46.7243 2.38826 46.7243 2.38826C49.2609 7.22661 46.5139 14.9069 46.5139 14.9069C46.5139 14.9069 50.2963 14.3836 51.1293 9.94802C52.1659 4.41902 46.0499 0.321289 46.0499 0.321289C46.9785 5.37694 43.996 3.90384 43.0262 8.22387C42.054 12.5427 45.2219 14.1906 45.2219 14.1906Z" fill="white"/>
<path d="M51.6437 6.90004L51.9915 7.85422C56.4514 5.06849 61.4053 6.67836 61.4053 6.67836C56.1929 7.23475 50.8206 12.9711 50.8206 12.9711C49.3544 15.4477 44.9238 16.2963 44.9238 16.2963C45.4883 16.7204 45.7806 17.2655 45.7806 17.2655C48.0543 16.9739 49.4225 15.3522 49.4225 15.3522C57.1196 17.8931 59.2965 11.1689 60.7921 8.84774C62.2927 6.52724 64.0361 6.43107 64.0361 6.43107C56.1304 3.45051 51.6449 6.89942 51.6449 6.89942L51.6437 6.90004ZM58.8924 10.254C57.794 12.2142 56.1354 15.8942 50.5827 14.5728C50.5827 14.5728 53.8131 10.1117 60.4474 7.43146C60.4474 7.43146 59.9934 8.29447 58.8924 10.254Z" fill="white"/>
<path d="M6.29733 5.64051C6.29733 5.52186 6.24362 5.46191 6.13871 5.46191H3.35923C3.24495 5.46191 3.1875 5.51749 3.1875 5.62552V6.72645C3.20436 6.87757 3.28991 6.9675 3.44291 6.9956H6.02131C6.16869 6.98623 6.26173 6.89381 6.29795 6.71896V5.63989L6.29733 5.64051Z" fill="white"/>
<path d="M2.01827 15.7623V16.1514C1.96644 16.3718 2.05512 16.5098 2.27992 16.5642H7.23004C7.37305 16.5548 7.45985 16.4736 7.49294 16.3219V15.7623C7.45985 15.6069 7.37367 15.5244 7.23004 15.5207H2.28055C2.14629 15.5163 2.06011 15.5981 2.0189 15.7623H2.01827ZM2.65523 15.8317H6.95278C7.15136 15.841 7.24753 15.9253 7.24316 16.0889C7.21131 16.1988 7.11452 16.2563 6.95278 16.2607H2.50848C2.34237 16.27 2.23996 16.1982 2.20499 16.0452C2.20062 15.9921 2.23309 15.9384 2.30116 15.8879C2.39857 15.851 2.5141 15.8317 2.65523 15.8317Z" fill="white"/>
<path d="M6.42932 16.9863H3.06845C2.95355 16.9863 2.89673 17.0157 2.89673 17.0769C2.873 17.2093 2.95106 17.2886 3.1309 17.3104H6.28382C6.46928 17.3254 6.56795 17.2486 6.58793 17.0831C6.58793 17.0194 6.53423 16.987 6.42932 16.987V16.9863Z" fill="white"/>
<path d="M9.46874 0H0.304738C0.13426 0 0 0.135509 0 0.305987V26.3211C0 26.491 0.13426 26.6284 0.304738 26.6284H9.46936C9.64047 26.6284 9.77472 26.491 9.77472 26.3211V0.305987C9.77472 0.135509 9.64047 0 9.46936 0H9.46874ZM5.21864 1.26516C5.32043 1.18773 5.40473 1.19397 5.47342 1.28577C5.53774 1.43439 5.55897 1.63609 5.53712 1.89525C5.56334 2.06448 5.69261 2.13566 5.92428 2.10819H7.4792C7.65405 2.11256 7.75584 2.18437 7.78331 2.32175C7.77332 2.47038 7.67403 2.54719 7.48669 2.55031H5.59894C5.32605 2.55343 5.17493 2.40169 5.14183 2.09383C5.11998 1.70666 5.14558 1.4294 5.21864 1.26454V1.26516ZM1.94146 2.12318L2.01015 2.10881H3.66997C3.81297 2.09945 3.89915 2.01827 3.93225 1.86652C3.9235 1.60487 3.93225 1.42503 3.96035 1.32761C3.96971 1.26704 4.00593 1.21645 4.0715 1.17586C4.25572 1.11529 4.36 1.21208 4.38248 1.46624V2.09507C4.37749 2.37671 4.22637 2.52845 3.92663 2.55156H2.01077C1.90961 2.54219 1.82968 2.51534 1.77035 2.4685C1.65108 2.30739 1.70853 2.19124 1.94208 2.1238L1.94146 2.12318ZM1.64546 4.18952C1.6542 3.90852 1.81094 3.72742 2.11506 3.64999C2.87128 3.49824 3.62563 3.35337 4.38248 3.21536C4.49239 3.18789 4.54859 3.10483 4.54859 2.96558C4.55296 2.87191 4.57857 2.79073 4.6254 2.71642C4.81836 2.61088 4.92077 2.69893 4.93638 2.98056C4.93638 3.10858 5.00382 3.19038 5.14183 3.22161C5.85684 3.35025 6.57185 3.48513 7.28561 3.62938C7.61346 3.63937 7.81079 3.82421 7.8801 4.18952V7.10639C7.85762 7.34494 7.76083 7.42924 7.5891 7.35555C7.52915 7.29061 7.49543 7.20881 7.49294 7.10639V4.34064C7.45547 4.12271 7.31059 4.01218 7.05768 4.00094L4.84584 3.57942C4.79775 3.56319 4.75279 3.56131 4.70658 3.57443L2.49473 3.98158C2.24994 3.98158 2.09133 4.09398 2.01764 4.32004V7.11951C2.0039 7.3643 1.90836 7.44423 1.73476 7.36242C1.69167 7.3337 1.66232 7.25252 1.64484 7.11951V4.1889L1.64546 4.18952ZM3.2547 7.38178C2.9918 7.3874 2.84068 7.23441 2.79947 6.92655V4.59667C2.80821 4.49489 2.83569 4.41371 2.88315 4.34751C2.9331 4.29381 2.99493 4.28507 3.06861 4.32691C3.16665 4.42932 3.20037 4.60417 3.17103 4.85333C3.17103 4.96823 3.22785 5.02506 3.33963 5.02506H6.12599C6.23964 5.02506 6.29771 4.96948 6.29771 4.85833C6.27898 4.67848 6.29896 4.52736 6.36016 4.40309C6.53938 4.28881 6.64741 4.34751 6.68613 4.58231V6.92655C6.68051 7.19694 6.52814 7.35056 6.22965 7.38178H3.25533H3.2547ZM5.31356 9.58614C5.31356 9.82094 5.12372 10.012 4.88767 10.012C4.65163 10.012 4.46179 9.82031 4.46179 9.58614C4.46179 9.35196 4.65163 9.16088 4.88767 9.16088C5.12372 9.16088 5.31356 9.34947 5.31356 9.58614ZM7.87948 24.9011C7.857 25.1403 7.76021 25.2246 7.5891 25.1515C7.5304 25.0866 7.49793 25.0048 7.49356 24.9011V19.6131C7.48294 19.4708 7.413 19.3833 7.27812 19.3509H6.79479C6.66115 19.3833 6.59059 19.4708 6.58684 19.6131V21.8044C6.58247 22.0773 6.43072 22.2303 6.12973 22.2665H5.10686C4.99196 22.2665 4.93513 22.3233 4.93513 22.4332V23.1651C4.93513 23.2806 4.99009 23.3381 5.10187 23.3381H6.30458C6.46944 23.3331 6.56998 23.4061 6.60807 23.5535C6.58809 23.6959 6.48817 23.7671 6.30458 23.7671H5.10749C4.99258 23.7671 4.93576 23.8227 4.93576 23.9326V24.5196C4.93576 24.6357 4.99071 24.6938 5.10249 24.6938H6.57498C6.75919 24.6975 6.86035 24.7856 6.87784 24.9554C6.841 25.1034 6.74108 25.1771 6.57498 25.1771H2.95871C2.77012 25.1715 2.66583 25.0872 2.6471 24.9217C2.67458 24.7793 2.77949 24.7025 2.95871 24.6944H4.37624C4.49114 24.6944 4.54922 24.6395 4.54922 24.527V23.9394C4.54922 23.8233 4.49489 23.7671 4.38248 23.7671H3.30528C3.13918 23.7771 3.03677 23.7053 2.99992 23.5535C3.01866 23.4149 3.12107 23.3443 3.30528 23.3381H4.37686C4.49177 23.3381 4.54984 23.2837 4.54984 23.1732V22.4395C4.54984 22.3246 4.49551 22.2665 4.38311 22.2665H3.40832C3.10109 22.2303 2.94747 22.0773 2.95434 21.8044V19.6131C2.93935 19.4708 2.86129 19.3833 2.71766 19.3509H2.24807C2.10569 19.3833 2.02826 19.4708 2.02014 19.6131V24.9011C2.00703 25.1446 1.91211 25.2252 1.73726 25.1421C1.69604 25.1153 1.66544 25.0341 1.64733 24.9011V19.4333C1.64296 19.1667 1.79471 19.0124 2.10444 18.9706H2.82819C3.13855 19.0118 3.28967 19.1667 3.28593 19.4333V21.5971C3.30341 21.7632 3.39708 21.8581 3.56131 21.8793H4.37811C4.49301 21.8793 4.55109 21.8244 4.55109 21.7151V19.2116C4.56483 19.1098 4.59043 19.028 4.62665 18.9631C4.82023 18.8613 4.92514 18.9443 4.93826 19.2116V21.7057C4.93826 21.8212 4.99321 21.8787 5.10499 21.8787H5.87058C6.01733 21.8718 6.11037 21.7794 6.14784 21.6027V19.4327C6.14285 19.166 6.29459 19.0118 6.60245 18.9699H7.42674C7.72649 19.0112 7.87823 19.166 7.88198 19.4327V24.9005L7.87948 24.9011ZM7.67903 13.702H5.7919C5.66388 13.702 5.67637 13.7326 5.83311 13.7925L7.418 14.4295C7.61908 14.4832 7.73148 14.5956 7.74959 14.7604C7.67528 14.8903 7.55788 14.9166 7.39552 14.8435C7.25876 14.7973 7.11951 14.7423 6.9815 14.6774C6.86597 14.6306 6.76044 14.6087 6.66302 14.6087H5.10811C4.99321 14.6087 4.93576 14.6624 4.93576 14.7736V14.9472C4.93576 15.0621 4.99071 15.1195 5.09999 15.1195H7.42362C7.68652 15.1145 7.83826 15.2675 7.87948 15.576V16.5352C7.87074 16.7718 7.75021 16.9167 7.51979 16.971C7.418 16.986 7.31559 16.9916 7.20881 16.986C7.0939 16.986 7.03645 17.0416 7.03645 17.1515C7.06268 17.4794 6.90781 17.6611 6.57185 17.6985H2.94997C2.619 17.6648 2.46288 17.4862 2.48724 17.1596C2.48724 17.0447 2.43104 16.986 2.32113 16.986C2.0626 17.0085 1.86964 16.9579 1.74038 16.8349C1.68168 16.75 1.64921 16.6519 1.64484 16.5352V15.576C1.63922 15.3037 1.79159 15.152 2.10069 15.1195H4.37561C4.48989 15.1195 4.54734 15.0633 4.54734 14.9528V14.7673C4.54734 14.653 4.49177 14.595 4.38124 14.595H2.81883C2.70767 14.5712 2.56092 14.6131 2.37733 14.7186C2.14253 14.8516 1.94458 14.8872 1.78159 14.821C1.68543 14.7211 1.69916 14.6218 1.82468 14.5263C1.9808 14.442 2.14378 14.3689 2.31551 14.304C2.72141 14.1304 3.13293 13.9593 3.5532 13.8C3.68496 13.7432 3.68995 13.717 3.56569 13.717H1.76099C1.5674 13.712 1.46624 13.6277 1.4575 13.4616C1.49372 13.3373 1.59488 13.2698 1.76099 13.2611H4.37561C4.48989 13.2611 4.54734 13.2012 4.54734 13.0813C4.54734 12.9614 4.49177 12.8939 4.38124 12.8939H1.76973C1.60237 12.9002 1.50433 12.8308 1.47186 12.6941C1.50371 12.5873 1.60237 12.5299 1.76973 12.5205H4.38935C4.513 12.5205 4.49614 12.4668 4.33315 12.355C4.24198 12.2588 4.14019 12.2264 4.02904 12.2588H1.79034C1.62298 12.267 1.52307 12.1958 1.48622 12.0447C1.50371 11.9041 1.60612 11.8336 1.79034 11.8292H3.32589C3.44891 11.8292 3.44204 11.7936 3.30466 11.7181C3.1473 11.6581 3.09359 11.5638 3.14542 11.4358C3.26469 11.2416 3.41144 11.2166 3.58692 11.3596L4.41745 11.9123C4.62852 12.0596 4.85895 12.0222 5.10811 11.8024L5.66139 11.4139C5.88182 11.2535 6.0498 11.2578 6.16533 11.4302C6.21591 11.5213 6.19593 11.6131 6.10413 11.7056C6.02045 11.778 6.03919 11.8167 6.15846 11.8167H7.64406C7.82078 11.8217 7.92132 11.8917 7.94942 12.0297C7.94068 12.1783 7.84076 12.2545 7.65155 12.2595H5.39099C5.28109 12.2595 5.1768 12.2982 5.08001 12.3775C4.96885 12.4637 4.96761 12.508 5.07189 12.508H7.67153C7.77769 12.5124 7.86574 12.5455 7.93568 12.6104C8.00437 12.7903 7.9157 12.8889 7.67153 12.9089H5.10749C4.99258 12.9089 4.93513 12.9657 4.93513 13.0813C4.93513 13.1968 4.99009 13.2611 5.09937 13.2611H7.67091C7.84638 13.2661 7.94817 13.3373 7.97565 13.4753C7.96565 13.6214 7.86761 13.6989 7.67778 13.7032L7.67903 13.702Z" fill="white"/>
<path d="M4.90788 13.8605C4.68245 13.7824 4.40144 13.8549 4.06548 14.0753C3.93059 14.1502 3.91623 14.1865 4.02176 14.1865H5.42618C5.55357 14.1865 5.54108 14.1521 5.38434 14.0822L4.90725 13.8611L4.90788 13.8605Z" fill="white"/>
</g>
<defs>
<clipPath id="clip0_4001_1543">
<rect width="124.842" height="40" fill="white"/>
</clipPath>
</defs>
</svg>
